<svg width="660" height="510" fill="none" xmlns="http://www.w3.org/2000/svg"><path fill-rule="evenodd" clip-rule="evenodd" d="M533.787 8.787c11.716-11.716 30.71-11.716 42.426 0l75 75c11.716 11.715 11.716 30.71 0 42.426l-375 375c-11.716 11.716-30.71 11.716-42.426 0l-225-225c-11.716-11.716-11.716-30.71 0-42.426l75-75c11.715-11.716 30.71-11.716 42.426 0L255 287.574 533.787 8.787zM555 72.427L276.213 351.212c-11.716 11.716-30.71 11.716-42.426 0L105 222.426 72.426 255 255 437.574 587.574 105 555 72.426z" fill="#0DD845"/></svg>