<svg width="23" height="23" fill="none" xmlns="http://www.w3.org/2000/svg"><path fill-rule="evenodd" clip-rule="evenodd" d="M11.5 22.041A10.511 10.511 0 0022.042 11.5 10.508 10.508 0 0011.5.958 10.511 10.511 0 00.958 11.5a10.557 10.557 0 001.184 4.877A10.51 10.51 0 0011.5 22.04zM4.6 10.445c0 .056.032.111.096.222.047.08.11.191.192.354.191.287.479.766.67 1.15.288.479.767.958 1.438 1.15.767.191 1.437-.096 2.108-.48.671-.383 1.246-.958 1.342-1.725.084-.591-.279-1.109-.497-1.42l-.078-.113c-.575-.67-.767-.958-.575-1.342.096-.287.192-.383.287-.479.112-.056.256-.079.432-.107.127-.021.27-.044.43-.084.06-.02.129-.04.208-.061.31-.086.752-.209 1.134-.514.575-.384.863-.959.863-1.725.096-.575 0-1.15-.383-1.63-.272-.339-.64-.582-1-.763a8.639 8.639 0 014.406 1.059c-.877.869-1.533 1.615-1.969 2.196-.287.48-.575.958-.575 1.438 0 .66.322.992.767 1.437.383.192.862.383 1.246.383.205 0 .41-.027.601-.053.165-.022.32-.042.453-.042.479-.192.766-.288 1.246-.192.112 0 .159.033.197.06.027.02.05.036.09.036v.362c-.52-.044-1.613-.129-2.587.021-.575.096-1.342.288-1.821.767-.671.479-1.054 1.245-.958 2.108.191 1.63 1.054 2.492 1.725 3.067.224.224.416.383.575.514.112.094.208.173.287.252l.096.192c0 .287-.096.67-.288 1.342a14.005 14.005 0 01-1.065 2.023 8.707 8.707 0 01-1.722.264c.13-.45.2-.902.2-1.329 0-.48-.192-.863-.48-1.15-.124-.125-.366-.248-.62-.378-.437-.222-.913-.465-.913-.772 0-.192 0-.288-.095-.48 0-.287-.192-.766-.48-1.15a2.617 2.617 0 00-1.15-.862c-1.643-.704-3.456-.064-5.02.536a8.692 8.692 0 01-.538-3.027c0-.315.017-.625.049-.93.99-.353 1.434-.205 1.676-.125zm2.875.959s.192.096.67-.192a2.15 2.15 0 00.32-.249 2.761 2.761 0 00-.127-.134 4.23 4.23 0 00-.186-.27c-.416-.576-1.163-1.61-.677-2.988.288-.767.67-1.246 1.246-1.534.302-.12.642-.203.924-.272.165-.04.311-.076.418-.111l.224-.054c.203-.047.277-.064.35-.138 0 0 .096 0 .192-.383a.42.42 0 00-.096-.288c0-.095-.191-.191-.575-.287-.65-.279-1.838-.287-3.566-.114a8.578 8.578 0 00-3.19 4.115c.816-.124 1.596-.03 2.252.407.48.384.767.863.959 1.246.17.228.274.422.37.603.065.122.127.239.205.355.191.288.287.288.287.288zM4.313 16.29c1.82-.766 2.779-.766 3.354-.575.51.255.67.793.67 1.342 0 .288.096.67.48 1.054.12.18 1.148.671 1.437.671 0 .342-.097.733-.293 1.207a8.583 8.583 0 01-5.649-3.699zm10.925-8.816c.095 0 .191 0 .383-.096.09-.018.189-.043.297-.07.475-.117 1.127-.278 1.907-.122.67.192 1.054.48 1.438.959.287.383.383.862.383 1.341 0 .384-.096.863-.288 1.246-.191.287-.67.767-1.341.767-.168 0-.367-.017-.593-.035-.548-.044-1.247-.101-1.995.035-.479.095-.767.191-.958.383-.096.096-.192.192-.192.383.096.863.48 1.342 1.15 1.821.115.173.334.345.552.518.146.115.292.23.406.345.288.383.575.862.575 1.533 0 .657-.183 1.314-.461 2.061a8.591 8.591 0 003.624-7.044 8.595 8.595 0 00-2.815-6.395c-1.053.903-1.666 1.61-2.072 2.178-.05.074-.087.136-.114.187a.878.878 0 00.114.005z" fill="#fff" fill-opacity=".9"/></svg>