<svg width="20" height="24" fill="none" xmlns="http://www.w3.org/2000/svg"><path d="M10 .083a9.208 9.208 0 019.208 9.208c0 3.235-1.492 6.505-3.988 9.697a31.652 31.652 0 01-3.075 3.382l-.453.425-.413.372-.37.319-.225.187a1.083 1.083 0 01-1.36.006l-.237-.195-.367-.318-.413-.372-.452-.424-.24-.232a31.651 31.651 0 01-2.835-3.15C2.284 15.796.792 12.526.792 9.29A9.208 9.208 0 0110 .083zm0 2.167A7.042 7.042 0 002.958 9.29c0 2.661 1.303 5.516 3.528 8.362a29.517 29.517 0 002.642 2.934l.436.418c.144.134.288.27.436.4l.436-.4.436-.418a29.516 29.516 0 002.642-2.934c2.225-2.846 3.528-5.7 3.528-8.362A7.042 7.042 0 0010 2.25zm0 2.708a4.333 4.333 0 110 8.667 4.333 4.333 0 010-8.667zm0 2.167a2.167 2.167 0 100 4.333 2.167 2.167 0 000-4.333z" fill="#fff"/></svg>