<svg width="21" height="20" fill="none" xmlns="http://www.w3.org/2000/svg"><path d="M6.206.08H3.46C1.319.08-.216 2.106.469 4.136c1.37 4.057 3.21 7.651 5.609 10.05 2.399 2.399 5.993 4.24 10.05 5.609 2.03.685 4.056-.85 4.056-2.99v-2.748c0-.787-.427-1.511-1.114-1.893l-2.394-1.331-.173-.087a2.167 2.167 0 00-1.849.042l-2.19 1.094-.051-.016a6.645 6.645 0 01-1.885-.974 5.776 5.776 0 01-1.163-1.164 6.534 6.534 0 01-.87-1.595l-.103-.29-.017-.054 1.094-2.186c.32-.64.304-1.396-.043-2.02L8.1 1.194A2.167 2.167 0 006.206.08zM3.46 2.247h2.747l1.325 2.387-1.276 2.553c-.107.214-.14.457-.095.691.16.823.6 1.982 1.47 3.147a7.959 7.959 0 001.598 1.6c1.167.875 2.33 1.314 3.154 1.473.234.044.476.011.688-.095l2.553-1.277 2.394 1.331v2.748c0 .686-.598 1.139-1.196.937-3.768-1.272-7.103-2.98-9.211-5.088-2.108-2.109-3.816-5.443-5.088-9.211-.202-.598.251-1.196.937-1.196z" fill="#fff"/></svg>