<svg width="660" height="510" viewBox="0 0 660 510" fill="none" xmlns="http://www.w3.org/2000/svg">
<path fill-rule="evenodd" clip-rule="evenodd" d="M533.787 8.7868C545.503 -2.92893 564.497 -2.92893 576.213 8.7868L651.213 83.7868C662.929 95.5025 662.929 114.497 651.213 126.213L276.213 501.213C264.497 512.929 245.503 512.929 233.787 501.213L8.7868 276.213C-2.92893 264.497 -2.92893 245.503 8.7868 233.787L83.7868 158.787C95.5025 147.071 114.497 147.071 126.213 158.787L255 287.574L533.787 8.7868ZM555 72.4264L276.213 351.213C264.497 362.929 245.503 362.929 233.787 351.213L105 222.426L72.4264 255L255 437.574L587.574 105L555 72.4264Z" fill="#0DD845"/>
</svg>
