<svg width="22" height="16" viewBox="0 0 22 16" fill="none" xmlns="http://www.w3.org/2000/svg">
<path fill-rule="evenodd" clip-rule="evenodd" d="M17.2268 0.47686C17.5848 0.118879 18.1652 0.118879 18.5232 0.47686L20.8149 2.76853C21.1728 3.12651 21.1728 3.70691 20.8149 4.06489L9.35653 15.5232C8.99855 15.8812 8.41815 15.8812 8.06017 15.5232L1.18517 8.64822C0.827192 8.29024 0.827192 7.70984 1.18517 7.35186L3.47684 5.06019C3.83482 4.70221 4.41522 4.70221 4.7732 5.06019L8.70835 8.99535L17.2268 0.47686ZM17.875 2.4214L9.35653 10.9399C8.99855 11.2979 8.41815 11.2979 8.06017 10.9399L4.12502 7.00474L3.12972 8.00004L8.70835 13.5787L18.8703 3.41671L17.875 2.4214Z" fill="#333554"/>
</svg>
