<svg width="23" height="23" viewBox="0 0 23 23" fill="none" xmlns="http://www.w3.org/2000/svg">
<path fill-rule="evenodd" clip-rule="evenodd" d="M11.5 22.0413C17.3459 22.0413 22.0417 17.3455 22.0417 11.4997C22.0417 8.13609 20.4871 5.15324 18.0533 3.22654C17.9245 3.12457 17.7932 3.02557 17.6596 2.92962C15.9299 1.68759 13.8043 0.958008 11.5 0.958008C5.65421 0.958008 0.958374 5.65384 0.958374 11.4997C0.958374 13.113 1.31603 14.6387 1.95681 16.0024C2.01615 16.1286 2.07791 16.2535 2.14204 16.3769C3.89485 19.7505 7.41693 22.0413 11.5 22.0413ZM4.60004 10.4455C4.60004 10.5008 4.63198 10.5562 4.69587 10.6668C4.74264 10.7478 4.80653 10.8585 4.88754 11.0205C5.07921 11.308 5.36671 11.7872 5.55837 12.1705C5.84587 12.6497 6.32504 13.1288 6.99587 13.3205C7.76254 13.5122 8.43337 13.2247 9.10421 12.8413C9.77504 12.458 10.35 11.883 10.4459 11.1163C10.5304 10.5245 10.1674 10.0073 9.94915 9.69623C9.92001 9.65471 9.89345 9.61687 9.87087 9.58301C9.29587 8.91217 9.10421 8.62467 9.29587 8.24134C9.39171 7.95384 9.48754 7.85801 9.58337 7.76217C9.69476 7.70648 9.83851 7.68315 10.0146 7.65457C10.1416 7.63398 10.2853 7.61065 10.4459 7.57051C10.5041 7.55111 10.574 7.53171 10.6526 7.50993C10.9622 7.4241 11.4054 7.30125 11.7875 6.99551C12.3625 6.61217 12.65 6.03717 12.65 5.27051C12.7459 4.69551 12.65 4.12051 12.2667 3.64134C11.9953 3.30204 11.6277 3.05884 11.2662 2.87773C11.3439 2.8757 11.4218 2.87467 11.5 2.87467C13.0172 2.87467 14.4383 3.25896 15.672 3.93628C14.7959 4.80584 14.14 5.55199 13.7042 6.13301C13.4167 6.61217 13.1292 7.09134 13.1292 7.57051C13.1292 8.23144 13.4505 8.56267 13.8959 9.00801C14.2792 9.19967 14.7584 9.39134 15.1417 9.39134C15.3471 9.39134 15.5526 9.36382 15.7432 9.33827C15.9084 9.31615 16.0624 9.29551 16.1959 9.29551C16.675 9.10384 16.9625 9.00801 17.4417 9.10384C17.554 9.10384 17.6005 9.13672 17.639 9.16397C17.6663 9.18323 17.6895 9.19967 17.7292 9.19967V9.48717V9.56169C17.2082 9.51772 16.1163 9.43307 15.1417 9.58301C14.5667 9.67884 13.8 9.87051 13.3209 10.3497C12.65 10.8288 12.2667 11.5955 12.3625 12.458C12.5542 14.0872 13.4167 14.9497 14.0875 15.5247C14.3121 15.7492 14.5038 15.908 14.6625 16.0395C14.7748 16.1326 14.8706 16.2119 14.95 16.2913L15.0459 16.483C15.0459 16.7705 14.95 17.1538 14.7584 17.8247C14.502 18.4228 14.1695 19.0972 13.6928 19.8477C13.1391 19.9909 12.5632 20.081 11.9708 20.1123C12.1003 19.6612 12.1709 19.2103 12.1709 18.783C12.1709 18.3038 11.9792 17.9205 11.6917 17.633C11.5668 17.5081 11.3255 17.3851 11.0707 17.2551C10.6344 17.0326 10.1584 16.7898 10.1584 16.483C10.1584 16.2913 10.1584 16.1955 10.0625 16.0038C10.0625 15.7163 9.87087 15.2372 9.58337 14.8538C9.29587 14.4705 8.91254 14.183 8.43337 13.9913C6.79034 13.2872 4.97712 13.9266 3.4138 14.5271C3.06522 13.5867 2.87504 12.5669 2.87504 11.4997C2.87504 11.1854 2.89153 10.8753 2.9237 10.57C3.91344 10.2166 4.35834 10.3649 4.60004 10.4455ZM7.47504 11.4038C7.47504 11.4038 7.66671 11.4997 8.14587 11.2122C8.30219 11.108 8.40185 11.025 8.4641 10.9633C8.43377 10.9286 8.39272 10.884 8.33754 10.8288C8.29314 10.7548 8.22817 10.6648 8.15216 10.5596C7.73599 9.98305 6.98884 8.94808 7.47504 7.57051C7.76254 6.80384 8.14587 6.32467 8.72087 6.03717C9.02279 5.91641 9.36274 5.83369 9.64486 5.76505C9.81049 5.72474 9.95619 5.68929 10.0625 5.65384C10.1516 5.63157 10.2252 5.61447 10.2868 5.60015C10.4904 5.55283 10.564 5.53574 10.6375 5.46217C10.6375 5.46217 10.7334 5.46217 10.8292 5.07884C10.8292 4.88717 10.7334 4.79134 10.7334 4.79134C10.7334 4.69551 10.5417 4.59967 10.1584 4.50384C9.50872 4.22542 8.31982 4.21663 6.59165 4.39043C5.14214 5.38869 4.01842 6.82053 3.40189 8.50458C4.21808 8.3806 4.99846 8.47501 5.65421 8.91217C6.13337 9.29551 6.42087 9.77467 6.61254 10.158C6.78357 10.386 6.88677 10.5802 6.98266 10.7605C7.04797 10.8834 7.10989 10.9999 7.18754 11.1163C7.37921 11.4038 7.47504 11.4038 7.47504 11.4038ZM4.31254 16.2913C6.13337 15.5247 7.09171 15.5247 7.66671 15.7163C8.17673 15.9714 8.33754 16.5094 8.33754 17.058C8.33754 17.3455 8.43337 17.7288 8.81671 18.1122C8.9366 18.292 9.96521 18.783 10.2542 18.783C10.2542 19.1249 10.1566 19.5157 9.96139 19.9901C9.04677 19.8278 8.15973 19.5173 7.34442 19.072C6.12073 18.4035 5.08077 17.4471 4.31254 16.2913ZM15.2375 7.47467C15.3334 7.47467 15.4292 7.47467 15.6209 7.37884C15.7102 7.36097 15.8096 7.33644 15.9183 7.30959C16.3926 7.19245 17.0454 7.03124 17.825 7.18717C18.4959 7.37884 18.8792 7.66634 19.2625 8.14551C19.55 8.52884 19.6459 9.00801 19.6459 9.48717C19.6459 9.87051 19.55 10.3497 19.3584 10.733C19.1667 11.0205 18.6875 11.4997 18.0167 11.4997C17.8494 11.4997 17.6496 11.4834 17.4244 11.4652C16.8759 11.4206 16.1766 11.3638 15.4292 11.4997C14.95 11.5955 14.6625 11.6913 14.4709 11.883C14.375 11.9788 14.2792 12.0747 14.2792 12.2663C14.375 13.1288 14.7584 13.608 15.4292 14.0872C15.5442 14.2597 15.7627 14.4322 15.9812 14.6047C16.1269 14.7197 16.2725 14.8347 16.3875 14.9497C16.675 15.333 16.9625 15.8122 16.9625 16.483C16.9625 17.1401 16.7786 17.7972 16.5009 18.5443C18.6997 16.987 20.125 14.4215 20.125 11.4997C20.125 8.95385 19.043 6.67855 17.31 5.10495C16.2567 6.00769 15.6438 6.71424 15.2375 7.28301C15.1879 7.35748 15.1511 7.4191 15.1238 7.46951C15.1652 7.47467 15.2014 7.47467 15.2375 7.47467Z" fill="white" fill-opacity="0.9"/>
</svg>
