<svg width="20" height="24" viewBox="0 0 20 24" fill="none" xmlns="http://www.w3.org/2000/svg">
<path d="M9.99996 0.0830078C15.0856 0.0830078 19.2083 4.2057 19.2083 9.29134C19.2083 12.5257 17.7157 15.7964 15.2203 18.9878C14.3347 20.1205 13.3715 21.1766 12.3848 22.1385C12.3035 22.2178 12.2235 22.2949 12.145 22.37L11.6923 22.7947L11.279 23.1672L10.9098 23.486L10.6843 23.6728C10.2887 23.9952 9.72173 23.9978 9.32321 23.6789L9.08748 23.4838L8.72 23.1664L8.30745 22.7945L7.85487 22.37L7.61516 22.1385C6.62841 21.1766 5.66524 20.1205 4.7796 18.9878C2.28424 15.7964 0.791626 12.5257 0.791626 9.29134C0.791626 4.2057 4.91432 0.0830078 9.99996 0.0830078ZM9.99996 2.24967C6.11094 2.24967 2.95829 5.40232 2.95829 9.29134C2.95829 11.9522 4.26131 14.8074 6.48645 17.6532C7.30799 18.7039 8.20666 19.6893 9.12759 20.5871L9.56387 21.0045C9.70761 21.1393 9.85156 21.2743 9.99996 21.4041L10.436 21.0045L10.8723 20.5871C11.7933 19.6893 12.6919 18.7039 13.5135 17.6532C15.7386 14.8074 17.0416 11.9522 17.0416 9.29134C17.0416 5.40232 13.889 2.24967 9.99996 2.24967ZM9.99996 4.95801C12.3932 4.95801 14.3333 6.89811 14.3333 9.29134C14.3333 11.6846 12.3932 13.6247 9.99996 13.6247C7.60673 13.6247 5.66663 11.6846 5.66663 9.29134C5.66663 6.89811 7.60673 4.95801 9.99996 4.95801ZM9.99996 7.12467C8.80335 7.12467 7.83329 8.09473 7.83329 9.29134C7.83329 10.488 8.80335 11.458 9.99996 11.458C11.1966 11.458 12.1666 10.488 12.1666 9.29134C12.1666 8.09473 11.1966 7.12467 9.99996 7.12467Z" fill="white"/>
</svg>
