<svg width="21" height="20" viewBox="0 0 21 20" fill="none" xmlns="http://www.w3.org/2000/svg">
<path d="M6.20633 0.0800781H3.45862C1.31871 0.0800781 -0.215638 2.10578 0.469297 4.13574C1.8383 8.19294 3.67926 11.7873 6.07795 14.1859C8.47664 16.5847 12.071 18.4256 16.1282 19.7946C18.1581 20.4796 20.1838 18.9452 20.1838 16.8053V14.0571C20.1838 13.2705 19.7575 12.5457 19.07 12.1635L16.6762 10.8326L16.5026 10.746C15.9142 10.4847 15.236 10.4975 14.6543 10.7884L12.4646 11.882L12.4126 11.8658C12.3261 11.8376 12.2289 11.8037 12.1226 11.7635C11.5782 11.5579 11.0328 11.2707 10.5277 10.8921C10.3086 10.7278 10.1015 10.5492 9.90807 10.3558C9.71227 10.16 9.53151 9.94998 9.36526 9.72754C8.98792 9.22265 8.70095 8.67734 8.49473 8.13294L8.39204 7.84273L8.375 7.78917L9.46936 5.60274C9.78912 4.96333 9.77281 4.20726 9.4258 3.58216L8.10066 1.19511C7.71856 0.506924 6.99339 0.0800781 6.20633 0.0800781ZM3.45862 2.24674H6.20635L7.53147 4.63372L6.25483 7.18705C6.14797 7.40077 6.11477 7.64382 6.16039 7.87836C6.32039 8.70093 6.75958 9.86035 7.62976 11.0246C7.8569 11.3285 8.10531 11.6171 8.37602 11.8879C8.64352 12.1554 8.92836 12.4009 9.22806 12.6256C10.3948 13.5004 11.5571 13.9394 12.382 14.0976C12.6157 14.1425 12.8576 14.1091 13.0705 14.0027L15.6234 12.7263L18.0172 14.0571V16.8053C18.0172 17.4905 17.4191 17.9435 16.8209 17.7416C13.0533 16.4704 9.71846 14.7624 7.61002 12.6539C5.50157 10.5454 3.79353 7.21064 2.52225 3.44304C2.3204 2.84482 2.7734 2.24674 3.45862 2.24674Z" fill="white"/>
</svg>
