<svg width="29" height="29" viewBox="0 0 29 29" fill="none" xmlns="http://www.w3.org/2000/svg">
<path d="M20.2602 0H24.8571C27.1452 0 29 1.85482 29 4.14286V8.28571C29 19.7259 19.7259 29 8.28572 29H4.14286C1.85482 29 0 27.1452 0 24.8571V21.9945C0 21.2099 0.443289 20.4926 1.14506 20.1418L6.14948 17.6395C7.27697 17.0758 8.64236 17.6414 9.04099 18.8372L9.65779 20.6876C10.0573 21.8862 11.2868 22.5998 12.5258 22.352C17.4843 21.3603 21.3603 17.4843 22.352 12.5258C22.5998 11.2868 21.8862 10.0573 20.6876 9.65779L18.3912 8.8923C17.3643 8.55002 16.7741 7.47486 17.0367 6.42478L18.2506 1.56903C18.4811 0.646902 19.3097 0 20.2602 0Z" fill="#0DD845"/>
</svg>
