<svg width="23" height="23" viewBox="0 0 23 23" fill="none" xmlns="http://www.w3.org/2000/svg">
<path fill-rule="evenodd" clip-rule="evenodd" d="M0.958313 11.4997C0.958313 5.67767 5.67798 0.958008 11.5 0.958008C17.322 0.958008 22.0416 5.67767 22.0416 11.4997C22.0416 17.3217 17.322 22.0413 11.5 22.0413C5.67798 22.0413 0.958313 17.3217 0.958313 11.4997ZM11.5 2.87467C6.73652 2.87467 2.87498 6.73622 2.87498 11.4997C2.87498 16.2631 6.73652 20.1247 11.5 20.1247C16.2634 20.1247 20.125 16.2631 20.125 11.4997C20.125 6.73622 16.2634 2.87467 11.5 2.87467ZM11.5041 4.79134C12.0333 4.79139 12.4623 5.2205 12.4623 5.74977L12.4618 11.107L16.2441 14.8893C16.6183 15.2635 16.6183 15.8703 16.2441 16.2446C15.8698 16.6188 15.263 16.6188 14.8888 16.2446L10.8257 12.1815C10.646 12.0018 10.545 11.758 10.545 11.5038L10.5456 5.74958C10.5457 5.22031 10.9748 4.79129 11.5041 4.79134Z" fill="white" fill-opacity="0.9"/>
</svg>
